<?xml version="1.0" encoding="UTF-8" standalone="no"?>
<!-- Created with Inkscape (http://www.inkscape.org/) -->

<svg
   xmlns:dc="http://purl.org/dc/elements/1.1/"
   xmlns:cc="http://creativecommons.org/ns#"
   xmlns:rdf="http://www.w3.org/1999/02/22-rdf-syntax-ns#"
   xmlns:svg="http://www.w3.org/2000/svg"
   xmlns="http://www.w3.org/2000/svg"
   xmlns:sodipodi="http://sodipodi.sourceforge.net/DTD/sodipodi-0.dtd"
   xmlns:inkscape="http://www.inkscape.org/namespaces/inkscape"
   width="500mm"
   height="500mm"
   viewBox="0 0 500 500"
   version="1.1"
   id="svg10539"
   inkscape:version="0.92.1 r15371"
   sodipodi:docname="peppermint.svg">
  <defs
     id="defs10533" />
  <sodipodi:namedview
     id="base"
     pagecolor="#d4d4d4"
     bordercolor="#666666"
     borderopacity="1.0"
     inkscape:pageopacity="0"
     inkscape:pageshadow="2"
     inkscape:zoom="0.25"
     inkscape:cx="709.69266"
     inkscape:cy="952.30057"
     inkscape:document-units="mm"
     inkscape:current-layer="layer1"
     showgrid="false"
     inkscape:window-width="1366"
     inkscape:window-height="715"
     inkscape:window-x="-8"
     inkscape:window-y="-8"
     inkscape:window-maximized="1" />
  <metadata
     id="metadata10536">
    <rdf:RDF>
      <cc:Work
         rdf:about="">
        <dc:format>image/svg+xml</dc:format>
        <dc:type
           rdf:resource="http://purl.org/dc/dcmitype/StillImage" />
        <dc:title></dc:title>
      </cc:Work>
    </rdf:RDF>
  </metadata>
  <g
     inkscape:label="Layer 1"
     inkscape:groupmode="layer"
     id="layer1"
     transform="translate(0,203)">
    <g
       transform="matrix(1.871056,0,0,1.871056,-4884.6953,-103.95079)"
       id="g6769">
      <path
         style="opacity:1;vector-effect:none;fill:#c22327;fill-opacity:1;stroke:none;stroke-width:11.33858299;stroke-linecap:round;stroke-linejoin:round;stroke-miterlimit:4;stroke-dasharray:none;stroke-dashoffset:0;stroke-opacity:1;paint-order:fill markers stroke"
         d="m 7837.6836,552.73047 a 351.34368,351.34368 0 0 0 -184.707,196.65039 c 8.0137,13.28743 17.1082,25.9226 27.1953,37.7168 32.1372,37.57547 74.2581,66.52385 120.8535,83.06445 57.3625,20.3625 121.311,21.60574 179.4316,3.52734 -28.2105,53.69235 -74.1582,97.88863 -128.9238,123.95899 -44.4832,21.17536 -94.5726,30.45686 -143.6894,26.62496 -15.6573,-1.2214 -31.2034,-3.779 -46.4376,-7.5918 a 351.34368,351.34368 0 0 0 196.6485,184.6446 c 13.2619,-8.0033 25.8729,-17.0829 37.6465,-27.1524 37.5755,-32.1373 66.5238,-74.2581 83.0644,-120.8535 20.3625,-57.36228 21.6074,-121.31126 3.5293,-179.43163 53.6916,28.21057 97.887,74.1589 123.9571,128.92383 21.1753,44.4832 30.4569,94.5707 26.625,143.6875 -1.2204,15.6437 -3.775,31.1767 -7.5821,46.3984 a 351.34368,351.34368 0 0 0 184.6485,-196.5859 351.34368,351.34368 0 0 0 0,-0.002 c -8.0071,-13.27073 -17.0925,-25.88921 -27.168,-37.66993 -32.1372,-37.57558 -74.2581,-66.52197 -120.8535,-83.0625 -57.3637,-20.36293 -121.3141,-21.6068 -179.4356,-3.52734 28.2108,-53.68904 74.1568,-97.88193 128.9199,-123.95117 37.5329,-17.86679 79.0544,-27.26741 120.6172,-27.4668 7.6969,-0.0369 15.3956,0.24308 23.0704,0.8418 15.6739,1.22279 31.2363,3.78619 46.4863,7.60547 a 351.34368,351.34368 0 0 0 -196.584,-184.71875 c -13.299,8.01812 -25.9445,17.11784 -37.7481,27.21289 -37.5755,32.13715 -66.5238,74.25797 -83.0644,120.85351 -20.3609,57.35789 -21.6068,121.3011 -3.5332,179.41797 -53.6895,-28.2106 -97.8837,-74.15828 -123.9531,-128.92187 -21.1753,-44.4832 -30.4569,-94.57072 -26.625,-143.6875 1.2232,-15.68071 3.7893,-31.2496 7.6113,-46.50586 z"
         id="path6751"
         inkscape:connector-curvature="0"
         transform="matrix(0.37268944,0,0,0.37268944,-230.3321,-244.61485)" />
      <path
         style="opacity:1;vector-effect:none;fill:#ffffff;fill-opacity:1;stroke:none;stroke-width:11.33858299;stroke-linecap:round;stroke-linejoin:round;stroke-miterlimit:4;stroke-dasharray:none;stroke-dashoffset:0;stroke-opacity:1;paint-order:fill markers stroke"
         d="m 7981.4668,521.47852 a 351.34368,351.34368 0 0 0 -143.7832,31.25195 c -3.822,15.25626 -6.3881,30.82515 -7.6113,46.50586 -3.8319,49.11678 5.4497,99.2043 26.625,143.6875 26.0694,54.76359 70.2636,100.71127 123.9531,128.92187 -18.0736,-58.11687 -16.8277,-122.06008 3.5332,-179.41797 16.5406,-46.59554 45.4889,-88.71636 83.0644,-120.85351 11.8036,-10.09505 24.4491,-19.19477 37.7481,-27.21289 a 351.34368,351.34368 0 0 0 -123.5293,-22.88281 z m 250.5566,199.15429 c -41.5628,0.19939 -83.0844,9.60001 -120.6172,27.4668 -54.7631,26.06924 -100.7091,70.26213 -128.9199,123.95117 58.1215,-18.07946 122.0719,-16.83559 179.4356,3.52734 46.5954,16.54052 88.7163,45.48692 120.8535,83.0625 10.0759,11.78114 19.1607,24.40063 27.168,37.67188 a 351.34368,351.34368 0 0 0 22.8671,-123.49023 351.34368,351.34368 0 0 0 -31.2304,-143.74219 c -15.25,-3.81928 -30.8124,-6.38268 -46.4863,-7.60547 -7.6747,-0.59872 -15.3735,-0.87872 -23.0704,-0.8418 z m -579.0468,28.74805 a 351.34368,351.34368 0 0 0 -22.8516,123.44141 351.34368,351.34368 0 0 0 31.2812,143.85933 c 15.2341,3.8128 30.7804,6.3704 46.4376,7.5918 49.1168,3.8319 99.2062,-5.4496 143.6894,-26.62496 54.7656,-26.07036 100.7133,-70.26664 128.9238,-123.95899 -58.1206,18.0784 -122.0691,16.83516 -179.4316,-3.52734 -46.5954,-16.5406 -88.7163,-45.48898 -120.8535,-83.06445 -10.0871,-11.7942 -19.1816,-24.42937 -27.1953,-37.7168 z m 329.3183,124.50781 c 18.0781,58.12037 16.8332,122.06934 -3.5293,179.43163 -16.5406,46.5954 -45.4889,88.7162 -83.0644,120.8535 -11.7736,10.0695 -24.3846,19.1491 -37.6465,27.1524 a 351.34368,351.34368 0 0 0 123.4121,22.8398 351.34368,351.34368 0 0 0 143.8281,-31.2676 c 3.8071,-15.2217 6.3617,-30.7547 7.5821,-46.3984 3.8319,-49.1168 -5.4497,-99.2043 -26.625,-143.6875 -26.0701,-54.76493 -70.2655,-100.71326 -123.9571,-128.92383 z"
         id="path6703"
         inkscape:connector-curvature="0"
         transform="matrix(0.37268944,0,0,0.37268944,-230.3321,-244.61485)" />
    </g>
  </g>
</svg>
